<svg xmlns="http://www.w3.org/2000/svg" xmlns:xlink="http://www.w3.org/1999/xlink" width="48" zoomAndPan="magnify" viewBox="0 0 36 36.000001" height="48" preserveAspectRatio="xMidYMid meet" version="1.0"><defs><clipPath id="id1"><path d="M 0.488281 0 L 35.511719 0 L 35.511719 35.027344 L 0.488281 35.027344 Z M 0.488281 0 " clip-rule="nonzero"/></clipPath><clipPath id="id2"><path d="M 0.488281 4 L 14 4 L 14 31 L 0.488281 31 Z M 0.488281 4 " clip-rule="nonzero"/></clipPath></defs><g clip-path="url(#id1)"><path fill="#ffffff" d="M 35.511719 17.511719 C 35.511719 7.84375 27.671875 0 18 0 L 0.488281 0 L 0.488281 4.378906 L 18 4.378906 C 25.253906 4.378906 31.136719 10.261719 31.136719 17.511719 C 31.136719 24.765625 25.253906 30.648438 18 30.648438 L 0.488281 30.648438 L 0.488281 35.027344 L 18 35.027344 C 27.671875 35.027344 35.511719 27.183594 35.511719 17.511719 Z M 18 26.269531 L 9.242188 26.269531 L 9.242188 21.890625 L 18 21.890625 C 20.417969 21.890625 22.378906 19.929688 22.378906 17.511719 C 22.378906 15.09375 20.417969 13.136719 18 13.136719 L 9.242188 13.136719 L 9.242188 8.757812 L 18 8.757812 C 22.835938 8.757812 26.757812 12.679688 26.757812 17.511719 C 26.757812 22.347656 22.835938 26.269531 18 26.269531 " fill-opacity="1" fill-rule="nonzero"/></g><g clip-path="url(#id2)"><path fill="#d9d9d9" d="M 0.488281 17.511719 L 0.488281 30.648438 L 4.863281 30.648438 L 4.863281 21.890625 Z M 0.488281 4.378906 L 0.488281 13.136719 L 4.863281 17.511719 L 4.863281 4.378906 Z M 13.621094 21.890625 L 9.242188 17.511719 L 9.242188 21.890625 Z M 9.242188 13.136719 L 13.621094 13.136719 L 13.621094 17.511719 L 9.242188 13.136719 " fill-opacity="1" fill-rule="nonzero"/></g></svg>