<svg xmlns="http://www.w3.org/2000/svg" xmlns:xlink="http://www.w3.org/1999/xlink" width="170" zoomAndPan="magnify" viewBox="0 0 127.5 127.499994" height="170" preserveAspectRatio="xMidYMid meet" version="1.0"><defs><clipPath id="id1"><path d="M 0 0 L 127 0 L 127 127 L 0 127 Z M 0 0 " clip-rule="nonzero"/></clipPath></defs><g clip-path="url(#id1)"><path fill="#ffffff" d="M 127.5 63.75 C 127.5 28.546875 98.953125 0 63.75 0 L 0 0 L 0 15.9375 L 63.75 15.9375 C 90.152344 15.9375 111.5625 37.347656 111.5625 63.75 C 111.5625 90.152344 90.152344 111.5625 63.75 111.5625 L 0 111.5625 L 0 127.5 L 63.75 127.5 C 98.953125 127.5 127.5 98.953125 127.5 63.75 Z M 63.75 95.625 L 31.875 95.625 L 31.875 79.6875 L 63.75 79.6875 C 72.550781 79.6875 79.6875 72.550781 79.6875 63.75 C 79.6875 54.949219 72.550781 47.8125 63.75 47.8125 L 31.875 47.8125 L 31.875 31.875 L 63.75 31.875 C 81.351562 31.875 95.625 46.148438 95.625 63.75 C 95.625 81.351562 81.351562 95.625 63.75 95.625 " fill-opacity="1" fill-rule="nonzero"/></g><path fill="#ffffff" d="M 0 63.75 L 0 111.5625 L 15.9375 111.5625 L 15.9375 79.6875 Z M 0 15.9375 L 0 47.8125 L 15.9375 63.75 L 15.9375 15.9375 Z M 47.8125 79.6875 L 31.875 63.75 L 31.875 79.6875 Z M 31.875 47.8125 L 47.8125 47.8125 L 47.8125 63.75 L 31.875 47.8125 " fill-opacity="1" fill-rule="nonzero"/></svg>